<svg xmlns="http://www.w3.org/2000/svg" viewBox="0 0 512 512" role="img" aria-labelledby="t d">
<title id="t">Al-Urmawī Advar Atlas</title><desc id="d">A manuscript-inspired circular music-theory diagram crossed by a monochord.</desc>
<defs>
 <radialGradient id="paper" cx="42%" cy="36%" r="76%"><stop offset="0" stop-color="#f4e6c8"/><stop offset=".72" stop-color="#e5cfaa"/><stop offset="1" stop-color="#c9ad7c"/></radialGradient>
 <linearGradient id="night" x1="0" y1="0" x2="1" y2="1"><stop stop-color="#19233a"/><stop offset="1" stop-color="#0b101b"/></linearGradient>
 <filter id="shadow"><feDropShadow dx="0" dy="10" stdDeviation="13" flood-color="#000" flood-opacity=".38"/></filter>
</defs>
<rect width="512" height="512" rx="112" fill="url(#night)"/>
<circle cx="256" cy="250" r="190" fill="url(#paper)" stroke="#d7b66d" stroke-width="10" filter="url(#shadow)"/>
<g fill="none" stroke="#a94e39" stroke-width="6" opacity=".92">
 <circle cx="256" cy="250" r="158"/><circle cx="256" cy="250" r="128"/><circle cx="256" cy="250" r="98"/><circle cx="256" cy="250" r="68"/><circle cx="256" cy="250" r="38"/>
</g>
<g stroke="#a94e39" stroke-width="5" opacity=".86">
 <line x1="256" y1="60" x2="256" y2="440"/><line x1="66" y1="250" x2="446" y2="250"/>
 <line x1="122" y1="116" x2="390" y2="384"/><line x1="390" y1="116" x2="122" y2="384"/>
 <line x1="91" y1="155" x2="421" y2="345"/><line x1="421" y1="155" x2="91" y2="345"/>
</g>
<circle cx="256" cy="250" r="23" fill="#17130f" stroke="#d7b66d" stroke-width="6"/>
<g stroke-linecap="round">
 <line x1="91" y1="336" x2="421" y2="336" stroke="#17130f" stroke-width="18" opacity=".2"/>
 <line x1="91" y1="328" x2="421" y2="328" stroke="#f0d58f" stroke-width="8"/>
 <line x1="101" y1="302" x2="101" y2="354" stroke="#17130f" stroke-width="13"/>
 <line x1="411" y1="302" x2="411" y2="354" stroke="#17130f" stroke-width="13"/>
 <circle cx="322" cy="328" r="15" fill="#a94e39" stroke="#f7e7c2" stroke-width="6"/>
</g>
</svg>